<svg width="14" height="15" viewBox="0 0 14 15" fill="none" xmlns="http://www.w3.org/2000/svg">
<path d="M8.74984 14.2375H5.24984C2.08234 14.2375 0.729004 12.8841 0.729004 9.71663V6.21663C0.729004 3.04913 2.08234 1.6958 5.24984 1.6958H6.4165C6.65567 1.6958 6.854 1.89413 6.854 2.1333C6.854 2.37247 6.65567 2.5708 6.4165 2.5708H5.24984C2.56067 2.5708 1.604 3.52747 1.604 6.21663V9.71663C1.604 12.4058 2.56067 13.3625 5.24984 13.3625H8.74984C11.439 13.3625 12.3957 12.4058 12.3957 9.71663V8.54997C12.3957 8.3108 12.594 8.11247 12.8332 8.11247C13.0723 8.11247 13.2707 8.3108 13.2707 8.54997V9.71663C13.2707 12.8841 11.9173 14.2375 8.74984 14.2375Z" fill="#121212"/>
<path d="M4.95828 11.2861C4.60244 11.2861 4.27578 11.1578 4.03661 10.9245C3.75078 10.6386 3.62828 10.2245 3.69244 9.78695L3.94328 8.03112C3.98994 7.69279 4.21161 7.25529 4.45078 7.01612L9.04744 2.41945C10.2083 1.25862 11.3866 1.25862 12.5474 2.41945C13.1833 3.05529 13.4691 3.70279 13.4108 4.35029C13.3583 4.87529 13.0783 5.38862 12.5474 5.91362L7.95078 10.5103C7.71161 10.7495 7.27411 10.9711 6.93578 11.0178L5.17994 11.2686C5.10411 11.2861 5.02828 11.2861 4.95828 11.2861ZM9.66578 3.03779L5.06911 7.63445C4.95828 7.74529 4.82994 8.00195 4.80661 8.15362L4.55578 9.90945C4.53244 10.0786 4.56744 10.2186 4.65494 10.3061C4.74244 10.3936 4.88244 10.4286 5.05161 10.4053L6.80744 10.1545C6.95911 10.1311 7.22161 10.0028 7.32661 9.89195L11.9233 5.29529C12.3024 4.91612 12.5008 4.57779 12.5299 4.26279C12.5649 3.88362 12.3666 3.48112 11.9233 3.03195C10.9899 2.09862 10.3483 2.36112 9.66578 3.03779Z" fill="#121212"/>
<path d="M11.5794 6.70096C11.5386 6.70096 11.4977 6.69513 11.4627 6.68346C9.92857 6.25179 8.7094 5.03263 8.27774 3.49846C8.21357 3.26513 8.34774 3.02596 8.58107 2.95596C8.8144 2.89179 9.05357 3.02596 9.11774 3.25929C9.46774 4.50179 10.4536 5.48763 11.6961 5.83763C11.9294 5.90179 12.0636 6.14679 11.9994 6.38013C11.9469 6.57846 11.7719 6.70096 11.5794 6.70096Z" fill="#121212"/>
</svg>
