<svg width="10" height="11" viewBox="0 0 10 11" fill="none" xmlns="http://www.w3.org/2000/svg">
<path d="M5.72104 1.92939L6.45437 3.39606C6.55437 3.60023 6.82104 3.79606 7.04604 3.83356L8.37521 4.05439C9.22521 4.19606 9.42521 4.81273 8.81271 5.42106L7.77937 6.45439C7.60437 6.62939 7.50854 6.96689 7.56271 7.20856L7.85854 8.48773C8.09187 9.50023 7.55437 9.89189 6.65854 9.36273L5.41271 8.62523C5.18771 8.49189 4.81687 8.49189 4.58771 8.62523L3.34187 9.36273C2.45021 9.89189 1.90854 9.49606 2.14187 8.48773L2.43771 7.20856C2.49187 6.96689 2.39604 6.62939 2.22104 6.45439L1.18771 5.42106C0.579373 4.81273 0.775206 4.19606 1.62521 4.05439L2.95437 3.83356C3.17521 3.79606 3.44187 3.60023 3.54187 3.39606L4.27521 1.92939C4.67521 1.13356 5.32521 1.13356 5.72104 1.92939Z" fill="#bdbdbd"/>
</svg>
